<svg xmlns="http://www.w3.org/2000/svg" viewBox="-6.527 2.221 32.279 32.279" role="img" aria-label="Socket envrypt"><defs><linearGradient id="socket-brand-plate" gradientUnits="userSpaceOnUse" x1="-6.527" y1="0" x2="25.753" y2="0"><stop offset="0%" stop-color="#ff00aa"/><stop offset="100%" stop-color="#8c50ff"/></linearGradient></defs><rect data-socket-layer="plate" x="-6.527" y="2.221" width="32.279" height="32.279" fill="url(#socket-brand-plate)"/><path data-socket-layer="shield" fill="#ffffff" d="M18.44 8.84c.46.16.76.6.76 1.1-.04 3.58.23 8.63-.38 10.88-1.04 4.5-4.42 8.4-8.8 10.1a1.2 1.2 0 0 1-.84 0C4.52 29.15.92 24.73.18 19.8c-.06-.31-.1-.67-.13-.98-.04-.2-.05-1.14-.05-5.17V9.91a1.15 1.15 0 0 1 .76-1.07c2.8-1.02 5.38-1.93 8.2-2.96l.24-.1q.38-.12.77 0l2.24.81z"/><g data-socket-layer="glyph" transform="translate(2.013 9.2) scale(0.63333)"><defs><mask id="glyph-cut-0" maskUnits="userSpaceOnUse" x="0" y="0" width="24" height="24"><rect width="24" height="24" fill="#ffffff"/><path fill="#000000" d="M12 13.9a2.1 2.1 0 0 1 1.05 3.92V20h-2.1v-2.18A2.1 2.1 0 0 1 12 13.9"/></mask></defs><g mask="url(#glyph-cut-0)"><path fill="url(#socket-brand-plate)" fill-rule="evenodd" d="M5.4 10.2h13.2a1.8 1.8 0 0 1 1.8 1.8v9a1.8 1.8 0 0 1-1.8 1.8H5.4A1.8 1.8 0 0 1 3.6 21v-9a1.8 1.8 0 0 1 1.8-1.8"/></g><path fill="url(#socket-brand-plate)" fill-rule="evenodd" d="M6.6 10.4V7.9a5.4 5.4 0 0 1 10.8 0v1.2h-2.6V7.9a2.8 2.8 0 0 0-5.6 0v2.5Z"/></g></svg>